:SAMPLES-PER-SECOND 30
:FULLY-SPECIFIED
:DEGREES
480
root  13.5983 36.0999 2.89634 112.641 -77.4635 -126.362
RightUpLeg  -27.4013 -6.49735 -19.3994
RightLeg  42.1328 -4.89853 -5.01725
RightFoot  38.0451 -9.8213 21.761
RightToes  -5.28226e-011 1.30204e-014 -6.03759e-014
Spine  24.9264 -1.21534 -20.8381
Spine1  1.54095 -10.7573 26.9124
HEad  -10.7675 28.2968 -7.16309
LeftShoulder1  2.10073 -7.72145 -11.5632
LeftArm  -29.4157 32.7211 -54.7156
LeftForeArm  -46.7528 -2.12196 -5.99023
LeftHand  0.924191 8.55794 32.7055
RightShoulder  1.38677 1.55214 21.1781
RightArm  -21.9895 -38.468 46.9485
RightForeArm  -31.8302 44.3915 12.7362
RightHand  -1.65212 -0.153742 -35.7396
LeftUpLeg  3.09875 10.1941 39.0313
LeftLeg  40.9253 -1.7011 -1.19459
LeftFoot  -13.751 -0.714039 -36.9261
LeftToes  -2.75829e-010 5.07641e-011 -5.51782e-011
481
root  13.9498 37.7564 3.29041 118.35 -76.0384 -130.689
RightUpLeg  -32.5971 -10.0778 -15.5349
RightLeg  44.7102 -7.52285 -8.22443
RightFoot  31.182 -8.56335 22.3752
RightToes  -5.28226e-011 1.30204e-014 -6.03759e-014
Spine  25.6091 -2.5861 -23.2378
Spine1  0.236722 -12.7694 30.4357
HEad  -11.0128 34.0142 -7.49468
LeftShoulder1  2.16711 -8.09504 -11.5312
LeftArm  -29.5342 33.477 -53.3617
LeftForeArm  -46.4864 3.34306 -5.00601
LeftHand  0.879024 8.55931 31.2444
RightShoulder  1.31577 1.3021 21.1124
RightArm  -16.0151 -36.8315 48.0196
RightForeArm  -33.8724 39.2103 10.8707
RightHand  -1.71313 0.137172 -35.1377
LeftUpLeg  5.12192 11.0177 37.6437
LeftLeg  33.0761 1.11399 1.11419
LeftFoot  -4.74179 2.26633 -37.6139
LeftToes  -2.75829e-010 5.07641e-011 -5.51782e-011
482
root  14.2893 39.0573 3.64848 120.838 -75.7043 -131.578
RightUpLeg  -37.6366 -12.1221 -12.6863
RightLeg  48.0861 -10.3619 -12.4236
RightFoot  28.9396 -8.22026 22.7489
RightToes  -5.28226e-011 1.30204e-014 -6.03759e-014
Spine  27.3383 -4.63056 -24.9346
Spine1  -2.53237 -14.8741 32.6822
HEad  -10.4909 39.5919 -6.96299
LeftShoulder1  2.24135 -8.54902 -11.4295
LeftArm  -28.8907 36.1132 -50.8845
LeftForeArm  -46.0006 5.5171 -4.67667
LeftHand  0.817671 8.46694 30.0613
RightShoulder  1.0565 0.497324 20.0888
RightArm  -11.0096 -35.4799 50.3402
RightForeArm  -33.7611 35.2481 9.57157
RightHand  -1.66824 0.0567846 -34.7505
LeftUpLeg  5.18779 9.38229 34.62
LeftLeg  27.4135 6.98801 4.27149
LeftFoot  2.24142 4.36715 -35.7593
LeftToes  -2.75829e-010 5.07641e-011 -5.51782e-011
483
root  14.5133 39.9641 3.97752 124.414 -75.4126 -133.295
RightUpLeg  -42.5808 -12.3197 -10.7781
RightLeg  50.5872 -10.5944 -13.7954
RightFoot  32.0426 -8.47039 21.6703
RightToes  -5.28226e-011 1.30204e-014 -6.03759e-014
Spine  28.4329 -6.63735 -25.8145
Spine1  -5.29105 -16.3307 33.5957
HEad  -10.378 44.3291 -7.08461
LeftShoulder1  2.34232 -8.75559 -11.9979
LeftArm  -27.4948 38.9244 -47.4659
LeftForeArm  -46.576 5.11388 -4.76069
LeftHand  0.748438 8.29001 29.2694
RightShoulder  0.828621 -0.255631 19.1828
RightArm  -10.2577 -35.2943 52.7239
RightForeArm  -31.2147 34.8094 9.35801
RightHand  -1.6043 -0.155075 -34.7689
LeftUpLeg  4.29967 8.03348 31.4057
LeftLeg  24.8402 14.5444 7.58662
LeftFoot  6.10743 4.6645 -30.0054
LeftToes  -2.75829e-010 5.07641e-011 -5.51782e-011
484
root  14.6612 40.4949 4.25984 127.69 -74.9044 -135.232
RightUpLeg  -46.0903 -11.6812 -9.71171
RightLeg  51.615 -7.79724 -10.7603
RightFoot  33.6404 -9.00045 22.128
RightToes  -5.28226e-011 1.30204e-014 -6.03759e-014
Spine  28.1469 -7.73072 -26.3499
Spine1  -5.82408 -17.1231 33.6998
HEad  -11.6791 46.6983 -8.41316
LeftShoulder1  2.37411 -8.67963 -12.4173
LeftArm  -27.113 39.3819 -44.7605
LeftForeArm  -45.4304 4.45189 -4.50738
LeftHand  0.609406 7.80971 28.6241
RightShoulder  0.750739 -0.486363 18.4983
RightArm  -10.0991 -35.6625 53.8045
RightForeArm  -29.2295 37.7962 10.2154
RightHand  -1.59465 -0.162143 -34.6164
LeftUpLeg  3.54493 8.33951 29.0739
LeftLeg  24.1717 21.5083 10.531
LeftFoot  8.66417 3.95151 -22.4537
LeftToes  -2.75829e-010 5.07641e-011 -5.51782e-011
485
root  14.8486 40.5955 4.48811 128.99 -74.4543 -136.728
RightUpLeg  -47.0876 -11.4178 -9.38968
RightLeg  52.1102 -5.41507 -7.79122
RightFoot  31.8311 -9.62699 24.6247
RightToes  -5.28226e-011 1.30204e-014 -6.03759e-014
Spine  27.752 -7.88473 -27.2204
Spine1  -4.01735 -17.8865 33.2256
HEad  -13.3763 47.4709 -9.27859
LeftShoulder1  2.2361 -8.51601 -11.4364
LeftArm  -26.5006 38.6857 -43.485
LeftForeArm  -42.9891 3.83433 -4.76284
LeftHand  0.470362 7.30161 28.0492
RightShoulder  0.639731 -0.812884 17.2601
RightArm  -6.86753 -33.964 54.3315
RightForeArm  -27.4251 40.1567 10.9273
RightHand  -1.5615 -0.145001 -33.8259
LeftUpLeg  3.98053 9.31698 27.9898
LeftLeg  23.9247 25.5522 12.2621
LeftFoot  10.5929 3.56002 -18.5037
LeftToes  -2.75829e-010 5.07641e-011 -5.51782e-011
486
root  15.1161 40.2776 4.63211 127.572 -74.6357 -136.563
RightUpLeg  -45.6021 -11.8318 -10.1493
RightLeg  51.5285 -5.40965 -7.59711
RightFoot  31.1424 -10.6443 27.5198
RightToes  -5.28226e-011 1.30204e-014 -6.03759e-014
Spine  28.5165 -7.41198 -28.796
Spine1  -2.31572 -18.6413 33.2723
HEad  -14.0889 47.8918 -8.94064
LeftShoulder1  2.0178 -8.08857 -10.1083
LeftArm  -23.7475 39.1125 -42.3445
LeftForeArm  -42.0997 1.05477 -6.33659
LeftHand  0.450116 7.22364 27.9748
RightShoulder  0.462998 -1.47565 16.414
RightArm  -5.08288 -30.702 54.7398
RightForeArm  -22.137 41.855 11.2827
RightHand  -1.4735 -0.29611 -32.9233
LeftUpLeg  4.928 9.68266 28.0607
LeftLeg  23.9608 24.8149 12.1481
LeftFoot  9.81491 3.85726 -20.8613
LeftToes  -2.75829e-010 5.07641e-011 -5.51782e-011
487
root  15.4171 39.7058 4.75474 121.761 -76.2054 -131.04
RightUpLeg  -42.6201 -13.1048 -12.7496
RightLeg  48.5021 -5.60024 -7.09728
RightFoot  32.7977 -11.7687 29.1278
RightToes  -5.28226e-011 1.30204e-014 -6.03759e-014
Spine  29.6023 -6.36137 -29.5951
Spine1  -2.90292 -18.1491 34.2868
HEad  -13.4565 45.2018 -8.28664
LeftShoulder1  1.82289 -6.92046 -10.2073
LeftArm  -20.8603 38.314 -40.3483
LeftForeArm  -42.3725 -5.6376 -8.03453
LeftHand  0.534326 7.486 28.94
RightShoulder  0.567042 -1.14568 17.5197
RightArm  -10.8768 -31.3463 54.1234
RightForeArm  -15.2057 48.0671 13.7107
RightHand  -1.40549 -0.512158 -32.7998
LeftUpLeg  3.82242 8.05703 28.0114
LeftLeg  25.0284 21.0945 10.7416
LeftFoot  4.91281 3.66921 -25.5587
LeftToes  -2.75829e-010 5.07641e-011 -5.51782e-011
488
root  15.6687 39.0462 5.02378 111.488 -78.9002 -119.291
RightUpLeg  -38.9586 -15.3992 -17.2231
RightLeg  43.1887 -4.2683 -4.58275
RightFoot  33.694 -11.5107 27.9132
RightToes  -5.28226e-011 1.30204e-014 -6.03759e-014
Spine  29.1337 -4.63295 -26.5798
Spine1  -4.96372 -14.813 32.3769
HEad  -12.0564 34.6806 -6.8309
LeftShoulder1  1.44241 -4.39064 -11.067
LeftArm  -16.5471 30.366 -39.0768
LeftForeArm  -45.2996 -15.0504 -8.51455
LeftHand  0.655916 7.76569 31.1026
RightShoulder  1.09455 0.671405 19.833
RightArm  -21.0534 -38.0217 52.8076
RightForeArm  -14.2067 57.4418 18.9937
RightHand  -1.38096 -0.645413 -33.1266
LeftUpLeg  -0.19532 5.99875 26.3653
LeftLeg  27.5263 17.2304 9.85171
LeftFoot  -2.11812 2.28605 -27.5009
LeftToes  -2.75829e-010 5.07641e-011 -5.51782e-011
489
root  15.8256 38.3089 5.48282 108.415 -81.2389 -114.902
RightUpLeg  -35.1912 -17.4127 -22.1484
RightLeg  37.532 -3.16232 -2.83358
RightFoot  33.3927 -9.52547 23.4881
RightToes  -5.28226e-011 1.30204e-014 -6.03759e-014
Spine  26.7539 -1.91675 -17.5683
Spine1  -5.27776 -8.09142 20.953
HEad  -11.6403 16.0399 -2.85316
LeftShoulder1  0.788133 -0.555484 -12.5105
LeftArm  -6.08877 13.0503 -40.0287
LeftForeArm  -52.0893 -22.8776 -7.28695
LeftHand  0.776717 7.97092 33.6063
RightShoulder  1.73496 2.55143 22.4671
RightArm  -26.9993 -44.9659 50.6812
RightForeArm  -20.3019 59.0422 20.9347
RightHand  -1.2664 -0.862334 -31.7552
LeftUpLeg  -4.13432 5.13474 23.315
LeftLeg  31.9799 15.6173 10.6405
LeftFoot  -8.53318 0.728541 -27.1696
LeftToes  -2.75829e-010 5.07641e-011 -5.51782e-011
